<svg xmlns="http://www.w3.org/2000/svg" viewBox="0 0 253.02 256"><defs><style>.cls-1{fill:#62d3b5;}.cls-2{fill:#1fbc9c;}.cls-3{fill:#88e5ca;}</style></defs><g id="Layer_2" data-name="Layer 2"><g id="Layer_2-2" data-name="Layer 2"><path class="cls-1" d="M125,187.53c-32.88,0-59.53,7.07-59.53,26.8S74.42,256,125,256s59.54-21.95,59.54-41.67S157.9,187.53,125,187.53Z"/></g><g id="Layer_3" data-name="Layer 3"><path class="cls-2" d="M244.06,83.58c-18.6,22.53-64.2,38.47-117.55,38.47S27.56,106.11,9,83.58C3.2,76.6,0,69,0,61v65.49c0,69.87,56.64,96.75,126.51,96.75h0c69.87,0,126.51-26.88,126.51-96.75v-64H253C252.58,69.94,249.46,77,244.06,83.58Z"/><path class="cls-3" d="M126.51,0C59.75,0,5.11,25,.37,56.57A30,30,0,0,0,0,61C0,69,3.2,76.6,9,83.58,15.54,73.66,25.55,64.8,38,57.45,60.85,44,92,35.72,126.51,35.72c38,0,72.08,10.11,95.26,26.06,9.33,6.41,17,13.75,22.29,21.8,5.4-6.55,8.52-13.64,8.89-21.07,0-.5.07-1,.07-1.49C253,27.32,196.38,0,126.51,0Z"/></g></g></svg>